<svg xmlns="http://www.w3.org/2000/svg" width="1280" height="464" viewBox="0 0 1280 464" role="img" aria-label="How we work: 1. Free intro-call. We discuss your situation and open questions. Free and non-binding. 2. Secure data transfer. You send your data securely via our cloud. 3. Preparation and analysis of transaction data. Together we review your transaction data and identify tax-relevant facts. 4. Preparation of tax reports. You receive a clear report of all taxable events. 5. Tax filing. We prepare the tax return and submit it to the relevant tax authority. 6. Communication with tax authorities. We handle the communication with the tax authorities for you.">
<title>How we work: 1. Free intro-call. We discuss your situation and open questions. Free and non-binding. 2. Secure data transfer. You send your data securely via our cloud. 3. Preparation and analysis of transaction data. Together we review your transaction data and identify tax-relevant facts. 4. Preparation of tax reports. You receive a clear report of all taxable events. 5. Tax filing. We prepare the tax return and submit it to the relevant tax authority. 6. Communication with tax authorities. We handle the communication with the tax authorities for you.</title>
<defs><path id="bold2118" d="M309 0L147 0L147-570L7-570L7-700L309-700L309 0Z"/><path id="semi107" d="M224 0L94 0L94-700L605-700L605-591L224-591L224-378L562-378L562-268L224-268L224 0Z"/><path id="semi857" d="M207 0L82 0L82-534L201-534L201-456Q256-540 391-540L391-540L391-421Q383-422 376-423Q369-424 362-424L362-424Q291-424 249-383Q207-341 207-259L207-259L207 0Z"/><path id="semi661" d="M333 7L333 7Q244 7 178-29Q111-64 75-126Q38-187 38-267L38-267Q38-347 74-409Q109-470 172-505Q234-540 314-540L314-540Q392-540 453-506Q514-472 549-410Q584-347 584-264L584-264Q584-256 584-246Q583-236 582-227L582-227L163-227Q174-169 220-134Q266-99 336-99L336-99Q425-99 481-157L481-157L548-80Q474 7 333 7ZM162-310L162-310L465-310Q457-368 416-404Q375-440 314-440L314-440Q253-440 212-405Q171-369 162-310Z"/><path id="semi727" d="M207 0L82 0L82-534L207-534L207 0ZM145-622L145-622Q110-622 88-644Q65-666 65-697L65-697Q65-728 88-750Q110-772 145-772L145-772Q180-772 203-752Q225-731 225-700L225-700Q225-667 203-645Q180-622 145-622Z"/><path id="semi792" d="M207 0L82 0L82-534L201-534L201-465Q232-502 280-521Q327-540 385-540L385-540Q449-540 500-515Q550-490 579-438Q608-386 608-306L608-306L608 0L483 0L483-290Q483-361 450-396Q416-431 356-431L356-431Q289-431 248-391Q207-350 207-270L207-270L207 0Z"/><path id="semi885" d="M283 7L283 7Q195 7 147-39Q99-84 99-173L99-173L99-434L11-434L11-534L99-534L99-652L224-652L224-534L367-534L367-434L224-434L224-176Q224-137 243-117Q262-96 298-96L298-96Q339-96 368-118L368-118L403-29Q380-11 349-2Q317 7 283 7Z"/><path id="semi807" d="M322 7L322 7Q240 7 176-29Q112-64 75-126Q38-187 38-267L38-267Q38-347 75-409Q112-470 176-505Q240-540 322-540L322-540Q405-540 470-505Q534-470 571-409Q607-347 607-267L607-267Q607-187 571-126Q534-64 470-29Q405 7 322 7ZM322-100L322-100Q391-100 436-145Q481-190 481-267L481-267Q481-344 436-389Q391-434 322-434L322-434Q277-434 242-414Q206-393 185-356Q164-318 164-267L164-267Q164-216 185-179Q206-141 242-121Q277-100 322-100Z"/><path id="semi2276" d="M330-226L55-226L55-330L330-330L330-226Z"/><path id="semi634" d="M327 7L327 7Q243 7 178-29Q112-64 75-126Q38-187 38-267L38-267Q38-347 75-409Q112-470 178-505Q243-540 327-540L327-540Q405-540 465-509Q524-477 555-416L555-416L459-360Q435-398 401-416Q366-434 326-434L326-434Q257-434 211-389Q164-344 164-267L164-267Q164-189 211-145Q257-100 326-100L326-100Q366-100 401-118Q435-136 459-174L459-174L555-118Q524-58 465-26Q405 7 327 7Z"/><path id="semi588" d="M529 0L411 0L411-64Q363 7 243 7L243 7Q151 7 98-38Q44-83 44-153L44-153Q44-198 66-234Q87-270 136-291Q185-312 266-312L266-312L404-312L404-320Q404-375 371-406Q338-436 271-436L271-436Q226-436 183-422Q139-408 109-383L109-383L60-474Q103-507 163-524Q222-540 286-540L286-540Q402-540 466-485Q529-429 529-313L529-313L529 0ZM404-167L404-167L404-229L275-229Q211-229 189-208Q167-187 167-158L167-158Q167-124 194-104Q221-84 269-84L269-84Q315-84 352-105Q388-126 404-167Z"/><path id="semi769" d="M207 0L82 0L82-742L207-742L207 0Z"/><path id="reg333" d="M350 0L273 0L37-700L113-700L315-98L524-700L593-700L799-95L1004-700L1075-700L839 0L761 0L556-596L350 0Z"/><path id="reg661" d="M322 5L322 5Q240 5 178-30Q116-64 81-125Q46-185 46-263L46-263Q46-341 80-402Q113-462 171-496Q229-530 303-530L303-530Q377-530 435-497Q492-463 525-403Q558-342 558-263L558-263Q558-258 558-253Q557-247 557-241L557-241L116-241Q120-187 148-146Q175-104 221-81Q266-58 324-58L324-58Q372-58 414-75Q455-92 485-127L485-127L525-81Q489-39 437-17Q385 5 322 5ZM117-294L117-294L490-294Q486-346 461-385Q436-424 395-447Q354-469 303-469L303-469Q252-469 212-447Q171-425 146-386Q121-346 117-294Z"/><path id="reg646" d="M308 5L308 5Q233 5 174-29Q115-63 81-123Q46-183 46-263L46-263Q46-343 81-403Q115-463 174-497Q233-530 308-530L308-530Q371-530 424-504Q476-477 508-426L508-426L508-742L579-742L579 0L511 0L511-103Q479-51 426-23Q373 5 308 5ZM314-58L314-58Q369-58 414-84Q458-109 484-156Q509-202 509-263L509-263Q509-324 484-370Q458-416 414-442Q369-468 314-468L314-468Q258-468 214-442Q169-416 144-370Q118-324 118-263L118-263Q118-202 144-156Q169-109 214-84Q258-58 314-58Z"/><path id="reg727" d="M170 0L99 0L99-526L170-526L170 0ZM135-641L135-641Q113-641 98-656Q83-671 83-692L83-692Q83-712 98-727Q113-742 135-742L135-742Q157-742 172-728Q187-714 187-693L187-693Q187-671 172-656Q157-641 135-641Z"/><path id="reg871" d="M240 5L240 5Q175 5 117-14Q59-32 26-60L26-60L58-116Q89-91 139-74Q189-57 245-57L245-57Q320-57 353-81Q386-104 386-143L386-143Q386-172 368-189Q349-205 319-214Q288-222 252-228Q215-234 179-242Q143-250 113-266Q82-281 64-308Q45-335 45-380L45-380Q45-445 99-488Q153-530 253-530L253-530Q304-530 355-517Q406-503 439-481L439-481L408-424Q373-448 333-459Q293-469 253-469L253-469Q182-469 149-444Q116-419 116-382L116-382Q115-352 134-335Q152-318 183-309Q213-299 250-293Q286-287 323-279Q359-270 390-256Q420-241 439-215Q457-188 457-145L457-145Q457-77 400-36Q343 5 240 5Z"/><path id="reg634" d="M317 5L317 5Q238 5 177-30Q116-64 81-125Q46-185 46-263L46-263Q46-341 81-402Q116-462 177-496Q238-530 317-530L317-530Q384-530 438-504Q492-478 523-426L523-426L470-390Q443-430 403-449Q363-468 317-468L317-468Q259-468 215-443Q170-417 144-371Q118-325 118-263L118-263Q118-201 144-155Q170-109 215-84Q259-58 317-58L317-58Q363-58 403-77Q443-95 470-135L470-135L523-99Q492-48 438-22Q384 5 317 5Z"/><path id="reg899" d="M316 5L316 5Q215 5 155-51Q94-107 94-221L94-221L94-526L165-526L165-228Q165-144 207-102Q248-59 323-59L323-59Q406-59 454-110Q502-160 502-250L502-250L502-526L573-526L573 0L505 0L505-95Q478-48 429-22Q379 5 316 5Z"/><path id="reg949" d="M103 199L103 199Q66 199 33 187Q-1 175-25 151L-25 151L8 98Q48 138 104 138L104 138Q139 138 165 119Q190 99 213 50L213 50L236-1L1-526L75-526L273-79L471-526L541-526L278 63Q245 141 202 170Q159 199 103 199Z"/><path id="reg807" d="M314 5L314 5Q237 5 177-30Q116-64 81-125Q46-185 46-263L46-263Q46-341 81-402Q116-462 177-496Q237-530 314-530L314-530Q391-530 451-496Q511-462 546-402Q581-341 581-263L581-263Q581-185 546-125Q511-64 451-30Q391 5 314 5ZM314-58L314-58Q370-58 414-84Q458-109 484-156Q509-202 509-263L509-263Q509-324 484-370Q458-416 414-442Q370-468 314-468L314-468Q258-468 214-442Q169-416 144-370Q118-324 118-263L118-263Q118-202 144-156Q169-109 214-84Q258-58 314-58Z"/><path id="reg857" d="M170 0L99 0L99-526L167-526L167-424Q218-530 364-530L364-530L364-461Q359-461 355-462Q351-462 347-462L347-462Q264-462 217-412Q170-361 170-268L170-268L170 0Z"/><path id="reg885" d="M265 5L265 5Q191 5 151-36Q111-76 111-148L111-148L111-466L17-466L17-526L111-526L111-641L182-641L182-526L342-526L342-466L182-466L182-152Q182-56 273-56L273-56Q320-56 351-83L351-83L376-32Q355-13 326-4Q296 5 265 5Z"/><path id="reg588" d="M496 0L428 0L428-82Q404-42 358-19Q312 5 247 5L247 5Q158 5 107-38Q55-80 55-148L55-148Q55-188 75-222Q94-256 139-277Q183-297 258-297L258-297L425-297L425-329Q425-396 388-432Q350-468 276-468L276-468Q225-468 179-451Q133-434 101-406L101-406L69-459Q109-493 165-512Q221-530 283-530L283-530Q385-530 441-479Q496-428 496-326L496-326L496 0ZM425-158L425-158L425-244L260-244Q184-244 155-217Q125-190 125-150L125-150Q125-105 160-78Q195-51 258-51L258-51Q318-51 361-79Q404-106 425-158Z"/><path id="reg792" d="M170 0L99 0L99-526L167-526L167-429Q195-477 247-504Q298-530 367-530L367-530Q463-530 523-474Q583-418 583-305L583-305L583 0L512 0L512-298Q512-381 471-424Q429-466 354-466L354-466Q270-466 220-416Q170-366 170-276L170-276L170 0Z"/><path id="reg849" d="M370 5L370 5Q307 5 255-22Q203-49 170-100L170-100L170 194L99 194L99-526L167-526L167-422Q199-475 252-503Q305-530 370-530L370-530Q445-530 505-497Q564-463 598-403Q632-342 632-263L632-263Q632-183 598-123Q564-63 505-29Q445 5 370 5ZM365-58L365-58Q421-58 465-84Q509-109 535-155Q561-201 561-263L561-263Q561-324 535-370Q509-416 465-442Q421-468 365-468L365-468Q309-468 265-442Q220-416 195-370Q169-324 169-263L169-263Q169-201 195-155Q220-109 265-84Q309-58 365-58Z"/><path id="reg855" d="M308 5L308 5Q233 5 174-29Q115-63 81-123Q46-183 46-263L46-263Q46-342 81-403Q115-463 174-497Q233-530 308-530L308-530Q373-530 426-503Q479-475 511-422L511-422L511-526L579-526L579 194L508 194L508-100Q476-49 424-22Q371 5 308 5ZM314-58L314-58Q369-58 414-84Q458-109 484-155Q509-201 509-263L509-263Q509-324 484-370Q458-416 414-442Q369-468 314-468L314-468Q258-468 214-442Q169-416 144-370Q118-324 118-263L118-263Q118-201 144-155Q169-109 214-84Q258-58 314-58Z"/><path id="reg2248" d="M106 5L106 5Q84 5 69-11Q53-26 53-50L53-50Q53-73 69-89Q84-104 106-104L106-104Q128-104 144-89Q160-73 160-50L160-50Q160-26 144-11Q128 5 106 5Z"/><path id="reg107" d="M188 0L114 0L114-700L594-700L594-636L188-636L188-361L550-361L550-297L188-297L188 0Z"/><path id="reg2276" d="M322-240L60-240L60-302L322-302L322-240Z"/><path id="reg625" d="M370 5L370 5Q305 5 252-23Q199-51 167-103L167-103L167 0L99 0L99-742L170-742L170-426Q203-477 255-504Q307-530 370-530L370-530Q445-530 505-497Q564-463 598-403Q632-343 632-263L632-263Q632-183 598-123Q564-63 505-29Q445 5 370 5ZM365-58L365-58Q421-58 465-84Q509-109 535-156Q561-202 561-263L561-263Q561-324 535-370Q509-416 465-442Q421-468 365-468L365-468Q309-468 265-442Q220-416 195-370Q169-324 169-263L169-263Q169-202 195-156Q220-109 265-84Q309-58 365-58Z"/><path id="reg699" d="M323 199L323 199Q251 199 185 178Q119 157 78 118L78 118L114 64Q151 97 206 117Q260 136 321 136L321 136Q421 136 468 89Q515 42 515-55L515-55L515-121Q482-72 429-46Q375-20 310-20L310-20Q235-20 175-53Q115-85 81-143Q46-200 46-276L46-276Q46-351 81-409Q115-466 175-498Q235-530 310-530L310-530Q376-530 431-504Q485-477 518-426L518-426L518-526L586-526L586-64Q586 72 520 136Q453 199 323 199ZM317-83L317-83Q375-83 420-108Q465-132 491-176Q517-219 517-276L517-276Q517-333 491-376Q465-419 420-444Q375-468 317-468L317-468Q259-468 214-444Q169-419 144-376Q118-333 118-276L118-276Q118-219 144-176Q169-132 214-108Q259-83 317-83Z"/><path id="bold2119" d="M562 0L33 0L33-105L303-360Q350-404 363-434Q376-464 376-489L376-489Q376-530 348-553Q319-576 264-576L264-576Q219-576 182-559Q144-542 119-506L119-506L1-582Q42-642 113-677Q184-712 279-712L279-712Q357-712 416-687Q474-661 507-615Q539-569 539-505L539-505Q539-471 530-438Q521-404 496-367Q471-329 422-284L422-284L261-132L562-132L562 0Z"/><path id="semi268" d="M311 10L311 10Q229 10 154-14Q79-37 35-74L35-74L80-175Q122-141 184-120Q246-98 311-98L311-98Q393-98 430-124Q466-150 466-189L466-189Q466-221 444-241Q421-260 384-272Q347-283 303-293Q258-303 214-317Q169-330 132-352Q95-373 73-409Q50-445 50-501L50-501Q50-558 81-606Q111-653 174-682Q236-710 332-710L332-710Q395-710 457-694Q519-678 565-648L565-648L524-547Q477-575 427-589Q377-602 331-602L331-602Q250-602 215-574Q179-546 179-507L179-507Q179-475 202-456Q224-437 261-425Q298-413 343-404Q387-394 431-381Q475-368 512-346Q549-324 572-289Q594-253 594-198L594-198Q594-142 564-95Q533-47 470-19Q407 10 311 10Z"/><path id="semi899" d="M308 7L308 7Q206 7 142-51Q78-108 78-229L78-229L78-534L203-534L203-246Q203-173 236-138Q269-103 328-103L328-103Q394-103 434-144Q474-184 474-264L474-264L474-534L599-534L599 0L480 0L480-68Q450-32 405-13Q360 7 308 7Z"/><path id="semi646" d="M308 7L308 7Q231 7 170-27Q109-61 74-123Q38-184 38-267L38-267Q38-350 74-412Q109-473 170-507Q231-540 308-540L308-540Q360-540 404-523Q448-505 480-469L480-469L480-742L605-742L605 0L485 0L485-70Q454-31 409-12Q363 7 308 7ZM323-100L323-100Q368-100 404-121Q440-141 461-179Q482-216 482-267L482-267Q482-318 461-356Q440-393 404-414Q368-434 323-434L323-434Q278-434 242-414Q206-393 185-356Q164-318 164-267L164-267Q164-216 185-179Q206-141 242-121Q278-100 323-100Z"/><path id="semi871" d="M247 7L247 7Q180 7 119-10Q57-27 21-53L21-53L69-148Q104-124 155-110Q205-95 255-95L255-95Q315-95 341-111Q367-127 367-154L367-154Q367-180 343-192Q319-203 282-209Q244-215 202-222Q160-229 123-244Q85-259 61-290Q37-320 37-373L37-373Q37-449 101-495Q164-540 272-540L272-540Q325-540 381-528Q436-516 472-494L472-494L424-399Q386-421 348-430Q309-439 271-439L271-439Q214-439 187-422Q159-405 159-379L159-379Q159-352 183-339Q207-326 245-320Q282-314 324-307Q366-299 404-284Q441-269 465-240Q489-210 489-158L489-158Q489-83 424-38Q359 7 247 7Z"/><path id="semi697" d="M224 0L99 0L99-430L11-430L11-530L99-530L99-564Q99-648 148-699Q197-749 290-749L290-749Q322-749 352-742Q382-735 403-720L403-720L368-626Q354-636 337-642Q319-648 299-648L299-648Q220-648 220-562L220-562L220-530L367-530L367-430L224-430L224 0Z"/><path id="reg344" d="M354 0L281 0L281-242L1-700L80-700L320-308L560-700L634-700L354-242L354 0Z"/><path id="reg769" d="M170 0L99 0L99-742L170-742L170 0Z"/><path id="reg932" d="M307 0L234 0L1-526L75-526L272-78L471-526L541-526L307 0Z"/><path id="bold2120" d="M266 12L266 12Q192 12 121-8Q50-27-1-63L-1-63L62-187Q102-157 155-141Q207-124 262-124L262-124Q323-124 358-148Q393-171 393-214L393-214Q393-253 362-277Q331-300 262-300L262-300L188-300L188-407L331-570L34-570L34-700L524-700L524-595L366-416Q460-400 508-346Q556-292 556-214L556-214Q556-155 525-104Q494-52 430-20Q365 12 266 12Z"/><path id="semi248" d="M224 0L94 0L94-700L382-700Q474-700 541-670Q608-640 644-584Q680-528 680-451L680-451Q680-374 644-318Q608-262 541-232Q474-202 382-202L382-202L224-202L224 0ZM224-590L224-312L376-312Q462-312 506-349Q549-385 549-451L549-451Q549-517 506-554Q462-590 376-590L376-590L224-590Z"/><path id="semi849" d="M378 7L378 7Q327 7 283-11Q239-29 207-65L207-65L207 194L82 194L82-534L201-534L201-464Q233-503 279-522Q324-540 378-540L378-540Q456-540 517-507Q578-473 614-412Q649-350 649-267L649-267Q649-184 614-123Q578-61 517-27Q456 7 378 7ZM364-100L364-100Q409-100 445-121Q480-141 501-179Q522-216 522-267L522-267Q522-318 501-356Q480-393 445-414Q409-434 364-434L364-434Q319-434 283-414Q247-393 226-356Q205-318 205-267L205-267Q205-216 226-179Q247-141 283-121Q319-100 364-100Z"/><path id="semi949" d="M126 201L126 201Q87 201 48 188Q9 175-17 152L-17 152L33 60Q72 97 125 97L125 97Q158 97 180 80Q201 63 219 23L219 23L228 1L-5-534L125-534L293-138L462-534L582-534L332 43Q295 134 244 168Q193 201 126 201Z"/><path id="reg281" d="M324 0L250 0L250-636L4-636L4-700L570-700L570-636L324-636L324 0Z"/><path id="reg714" d="M170 0L99 0L99-742L170-742L170-434Q199-480 250-505Q300-530 367-530L367-530Q463-530 523-474Q583-418 583-305L583-305L583 0L512 0L512-298Q512-381 471-424Q429-466 354-466L354-466Q270-466 220-416Q170-366 170-276L170-276L170 0Z"/><path id="reg937" d="M273 0L206 0L8-526L76-526L240-80L410-526L471-526L639-80L806-526L871-526L672 0L605 0L440-430L273 0Z"/><path id="reg697" d="M182 0L111 0L111-466L17-466L17-526L111-526L111-591Q111-661 152-704Q193-747 270-747L270-747Q299-747 328-739Q356-731 375-714L375-714L351-661Q319-687 273-687L273-687Q180-687 180-588L180-588L180-526L342-526L342-466L182-466L182 0Z"/><path id="reg946" d="M99 0L19 0L227-270L29-526L109-526L267-320L425-526L503-526L305-270L515 0L434 0L267-219L99 0Z"/><path id="bold2121" d="M408-147L31-147L31-256L361-700L531-700L226-279L413-279L413-410L566-410L566-279L680-279L680-147L566-147L566 0L408 0L408-147Z"/><path id="semi946" d="M147 0L9 0L218-272L18-534L157-534L287-360L419-534L554-534L354-273L563 0L422 0L286-184L147 0Z"/><path id="bold2122" d="M277 12L277 12Q204 12 133-8Q61-27 10-63L10-63L74-187Q114-157 167-141Q219-124 273-124L273-124Q334-124 369-148Q404-172 404-215L404-215Q404-242 390-263Q376-283 340-295Q304-306 241-306L241-306L62-306L98-700L525-700L525-570L233-570L222-437L279-437Q382-437 446-409Q510-380 539-331Q568-282 568-220L568-220Q568-158 537-105Q506-52 442-20Q377 12 277 12Z"/><path id="semi281" d="M366 0L236 0L236-590L4-590L4-700L598-700L598-590L366-590L366 0Z"/><path id="semi1119" d="M224 0L99 0L99-430L11-430L11-530L99-530L99-564Q99-648 148-699Q197-749 290-749L290-749Q322-749 352-742Q382-735 403-720L403-720L368-626Q354-636 337-642Q319-648 299-648L299-648Q220-648 220-562L220-562L220-530L367-530L367-430L224-430L224 0ZM578 0L453 0L453-534L578-534L578 0ZM515-622L515-622Q480-622 458-644Q435-666 435-697L435-697Q435-728 458-750Q480-772 515-772L515-772Q550-772 573-752Q595-731 595-700L595-700Q595-667 573-645Q550-622 515-622Z"/><path id="semi699" d="M324 201L324 201Q249 201 179 182Q109 162 64 125L64 125L120 31Q155 60 209 78Q262 95 317 95L317 95Q405 95 446 55Q487 14 487-67L487-67L487-95Q454-59 408-42Q362-24 308-24L308-24Q232-24 171-57Q109-89 74-147Q38-205 38-283L38-283Q38-360 74-418Q109-476 171-508Q232-540 308-540L308-540Q364-540 412-522Q460-503 493-463L493-463L493-534L612-534L612-81Q612 64 538 133Q464 201 324 201ZM327-130L327-130Q398-130 444-173Q489-215 489-283L489-283Q489-351 444-393Q398-434 327-434L327-434Q255-434 210-393Q164-351 164-283L164-283Q164-215 210-173Q255-130 327-130Z"/><path id="reg786" d="M170 0L99 0L99-526L167-526L167-430Q195-478 245-504Q294-530 360-530L360-530Q425-530 475-502Q524-474 547-419L547-419Q575-470 630-500Q684-530 755-530L755-530Q851-530 909-474Q967-418 967-305L967-305L967 0L896 0L896-298Q896-381 856-424Q816-466 745-466L745-466Q664-466 617-416Q569-366 569-276L569-276L569 0L498 0L498-298Q498-381 458-424Q418-466 346-466L346-466Q266-466 218-416Q170-366 170-276L170-276L170 0Z"/><path id="bold2123" d="M352 12L352 12Q207 12 123-77Q39-165 39-335L39-335Q39-456 85-540Q130-624 211-668Q291-712 396-712L396-712Q452-712 503-700Q554-688 591-664L591-664L531-545Q502-565 469-573Q435-580 400-580L400-580Q312-580 259-529Q206-477 203-376L203-376Q265-439 376-439L376-439Q444-439 499-412Q553-385 585-336Q617-287 617-221L617-221Q617-149 582-97Q546-45 486-17Q426 12 352 12ZM343-109L343-109Q394-109 427-137Q460-165 460-213L460-213Q460-261 428-290Q395-318 341-318L341-318Q287-318 254-289Q220-259 220-213L220-213Q220-168 253-139Q285-109 343-109Z"/><path id="semi45" d="M418 10L418 10Q338 10 270-17Q201-43 151-92Q100-140 72-206Q44-272 44-350L44-350Q44-428 72-494Q100-560 151-609Q201-657 270-684Q338-710 419-710L419-710Q505-710 576-680Q647-650 696-593L696-593L612-514Q536-596 425-596L425-596Q352-596 296-565Q239-533 207-478Q175-422 175-350L175-350Q175-278 207-223Q239-167 296-136Q352-104 425-104L425-104Q537-104 612-187L612-187L696-107Q647-50 576-20Q505 10 418 10Z"/><path id="semi786" d="M207 0L82 0L82-534L201-534L201-467Q231-503 276-522Q321-540 376-540L376-540Q434-540 481-518Q528-496 556-450L556-450Q588-492 640-516Q692-540 756-540L756-540Q853-540 914-483Q975-426 975-306L975-306L975 0L850 0L850-290Q850-361 819-396Q787-431 730-431L730-431Q668-431 630-391Q591-351 591-271L591-271L591 0L466 0L466-290Q466-361 435-396Q403-431 346-431L346-431Q284-431 246-391Q207-351 207-271L207-271L207 0Z"/><path id="semi937" d="M320 0L200 0L4-534L122-534L263-140L410-534L515-534L659-139L804-534L915-534L718 0L598 0L460-369L320 0Z"/><path id="semi714" d="M207 0L82 0L82-742L207-742L207-472Q238-505 284-523Q329-540 385-540L385-540Q449-540 500-515Q550-490 579-438Q608-386 608-306L608-306L608 0L483 0L483-290Q483-361 450-396Q416-431 356-431L356-431Q289-431 248-391Q207-350 207-270L207-270L207 0Z"/></defs>
<rect x="1" y="1" width="382" height="212" rx="16" fill="#F4EFE9" stroke="#CFBDA2" stroke-width="2"/>
<rect x="24" y="24" width="44" height="44" rx="11" fill="#1C2143"/>
<g fill="#F4EFE9"><use href="#bold2118" transform="translate(41.69 54) scale(0.022)"/></g>
<g fill="#1C2143"><use href="#semi107" transform="translate(84 53) scale(0.02)"/><use href="#semi857" transform="translate(96.74 53) scale(0.02)"/><use href="#semi661" transform="translate(105.14 53) scale(0.02)"/><use href="#semi661" transform="translate(117.58 53) scale(0.02)"/><use href="#semi727" transform="translate(135.54 53) scale(0.02)"/><use href="#semi792" transform="translate(141.32 53) scale(0.02)"/><use href="#semi885" transform="translate(155.02 53) scale(0.02)"/><use href="#semi857" transform="translate(163.5 53) scale(0.02)"/><use href="#semi807" transform="translate(171.9 53) scale(0.02)"/><use href="#semi2276" transform="translate(184.8 53) scale(0.02)"/><use href="#semi634" transform="translate(192.5 53) scale(0.02)"/><use href="#semi588" transform="translate(204.12 53) scale(0.02)"/><use href="#semi769" transform="translate(216.26 53) scale(0.02)"/><use href="#semi769" transform="translate(222.04 53) scale(0.02)"/></g>
<g fill="#5E5244"><use href="#reg333" transform="translate(24 116) scale(0.02)"/><use href="#reg661" transform="translate(46.22 116) scale(0.02)"/><use href="#reg646" transform="translate(63.54 116) scale(0.02)"/><use href="#reg727" transform="translate(77.1 116) scale(0.02)"/><use href="#reg871" transform="translate(82.48 116) scale(0.02)"/><use href="#reg634" transform="translate(92.26 116) scale(0.02)"/><use href="#reg899" transform="translate(103.52 116) scale(0.02)"/><use href="#reg871" transform="translate(116.98 116) scale(0.02)"/><use href="#reg871" transform="translate(126.76 116) scale(0.02)"/><use href="#reg949" transform="translate(141.78 116) scale(0.02)"/><use href="#reg807" transform="translate(152.62 116) scale(0.02)"/><use href="#reg899" transform="translate(165.16 116) scale(0.02)"/><use href="#reg857" transform="translate(178.62 116) scale(0.02)"/><use href="#reg871" transform="translate(191.88 116) scale(0.02)"/><use href="#reg727" transform="translate(201.66 116) scale(0.02)"/><use href="#reg885" transform="translate(207.04 116) scale(0.02)"/><use href="#reg899" transform="translate(215.16 116) scale(0.02)"/><use href="#reg588" transform="translate(228.62 116) scale(0.02)"/><use href="#reg885" transform="translate(240.42 116) scale(0.02)"/><use href="#reg727" transform="translate(248.54 116) scale(0.02)"/><use href="#reg807" transform="translate(253.92 116) scale(0.02)"/><use href="#reg792" transform="translate(266.46 116) scale(0.02)"/><use href="#reg588" transform="translate(285.24 116) scale(0.02)"/><use href="#reg792" transform="translate(297.04 116) scale(0.02)"/><use href="#reg646" transform="translate(310.58 116) scale(0.02)"/></g>
<g fill="#5E5244"><use href="#reg807" transform="translate(24 145) scale(0.02)"/><use href="#reg849" transform="translate(36.54 145) scale(0.02)"/><use href="#reg661" transform="translate(50.1 145) scale(0.02)"/><use href="#reg792" transform="translate(62.18 145) scale(0.02)"/><use href="#reg855" transform="translate(80.96 145) scale(0.02)"/><use href="#reg899" transform="translate(94.52 145) scale(0.02)"/><use href="#reg661" transform="translate(107.98 145) scale(0.02)"/><use href="#reg871" transform="translate(120.06 145) scale(0.02)"/><use href="#reg885" transform="translate(129.84 145) scale(0.02)"/><use href="#reg727" transform="translate(137.96 145) scale(0.02)"/><use href="#reg807" transform="translate(143.34 145) scale(0.02)"/><use href="#reg792" transform="translate(155.88 145) scale(0.02)"/><use href="#reg871" transform="translate(169.42 145) scale(0.02)"/><use href="#reg2248" transform="translate(179.2 145) scale(0.02)"/><use href="#reg107" transform="translate(188.68 145) scale(0.02)"/><use href="#reg857" transform="translate(201.34 145) scale(0.02)"/><use href="#reg661" transform="translate(209.36 145) scale(0.02)"/><use href="#reg661" transform="translate(221.44 145) scale(0.02)"/><use href="#reg588" transform="translate(238.76 145) scale(0.02)"/><use href="#reg792" transform="translate(250.56 145) scale(0.02)"/><use href="#reg646" transform="translate(264.1 145) scale(0.02)"/></g>
<g fill="#5E5244"><use href="#reg792" transform="translate(24 174) scale(0.02)"/><use href="#reg807" transform="translate(37.54 174) scale(0.02)"/><use href="#reg792" transform="translate(50.08 174) scale(0.02)"/><use href="#reg2276" transform="translate(63.62 174) scale(0.02)"/><use href="#reg625" transform="translate(71.26 174) scale(0.02)"/><use href="#reg727" transform="translate(84.82 174) scale(0.02)"/><use href="#reg792" transform="translate(90.2 174) scale(0.02)"/><use href="#reg646" transform="translate(103.74 174) scale(0.02)"/><use href="#reg727" transform="translate(117.3 174) scale(0.02)"/><use href="#reg792" transform="translate(122.68 174) scale(0.02)"/><use href="#reg699" transform="translate(136.22 174) scale(0.02)"/><use href="#reg2248" transform="translate(149.94 174) scale(0.02)"/></g>
<g fill="none" stroke="#7A6B5A" stroke-width="3">
<rect x="390" y="98" width="30" height="18" rx="9"/>
<rect x="412" y="98" width="30" height="18" rx="9"/>
</g>
<rect x="449" y="1" width="382" height="212" rx="16" fill="#F4EFE9" stroke="#CFBDA2" stroke-width="2"/>
<rect x="472" y="24" width="44" height="44" rx="11" fill="#1C2143"/>
<g fill="#F4EFE9"><use href="#bold2119" transform="translate(487.51 54) scale(0.022)"/></g>
<g fill="#1C2143"><use href="#semi268" transform="translate(532 53) scale(0.02)"/><use href="#semi661" transform="translate(544.58 53) scale(0.02)"/><use href="#semi634" transform="translate(557.02 53) scale(0.02)"/><use href="#semi899" transform="translate(568.64 53) scale(0.02)"/><use href="#semi857" transform="translate(582.26 53) scale(0.02)"/><use href="#semi661" transform="translate(590.66 53) scale(0.02)"/><use href="#semi646" transform="translate(608.62 53) scale(0.02)"/><use href="#semi588" transform="translate(622.36 53) scale(0.02)"/><use href="#semi885" transform="translate(634.5 53) scale(0.02)"/><use href="#semi588" transform="translate(642.98 53) scale(0.02)"/><use href="#semi885" transform="translate(660.64 53) scale(0.02)"/><use href="#semi857" transform="translate(669.12 53) scale(0.02)"/><use href="#semi588" transform="translate(677.52 53) scale(0.02)"/><use href="#semi792" transform="translate(689.66 53) scale(0.02)"/><use href="#semi871" transform="translate(703.36 53) scale(0.02)"/><use href="#semi697" transform="translate(713.66 53) scale(0.02)"/><use href="#semi661" transform="translate(721.04 53) scale(0.02)"/><use href="#semi857" transform="translate(733.48 53) scale(0.02)"/></g>
<g fill="#5E5244"><use href="#reg344" transform="translate(472 116) scale(0.02)"/><use href="#reg807" transform="translate(484.7 116) scale(0.02)"/><use href="#reg899" transform="translate(497.24 116) scale(0.02)"/><use href="#reg871" transform="translate(515.94 116) scale(0.02)"/><use href="#reg661" transform="translate(525.72 116) scale(0.02)"/><use href="#reg792" transform="translate(537.8 116) scale(0.02)"/><use href="#reg646" transform="translate(551.34 116) scale(0.02)"/><use href="#reg949" transform="translate(570.14 116) scale(0.02)"/><use href="#reg807" transform="translate(580.98 116) scale(0.02)"/><use href="#reg899" transform="translate(593.52 116) scale(0.02)"/><use href="#reg857" transform="translate(606.98 116) scale(0.02)"/><use href="#reg646" transform="translate(620.24 116) scale(0.02)"/><use href="#reg588" transform="translate(633.8 116) scale(0.02)"/><use href="#reg885" transform="translate(645.6 116) scale(0.02)"/><use href="#reg588" transform="translate(653.72 116) scale(0.02)"/><use href="#reg871" transform="translate(670.76 116) scale(0.02)"/><use href="#reg661" transform="translate(680.54 116) scale(0.02)"/><use href="#reg634" transform="translate(692.62 116) scale(0.02)"/><use href="#reg899" transform="translate(703.88 116) scale(0.02)"/><use href="#reg857" transform="translate(717.34 116) scale(0.02)"/><use href="#reg661" transform="translate(725.36 116) scale(0.02)"/><use href="#reg769" transform="translate(737.44 116) scale(0.02)"/><use href="#reg949" transform="translate(742.82 116) scale(0.02)"/><use href="#reg932" transform="translate(758.9 116) scale(0.02)"/><use href="#reg727" transform="translate(769.74 116) scale(0.02)"/><use href="#reg588" transform="translate(775.12 116) scale(0.02)"/></g>
<g fill="#5E5244"><use href="#reg807" transform="translate(472 145) scale(0.02)"/><use href="#reg899" transform="translate(484.54 145) scale(0.02)"/><use href="#reg857" transform="translate(498 145) scale(0.02)"/><use href="#reg634" transform="translate(511.26 145) scale(0.02)"/><use href="#reg769" transform="translate(522.52 145) scale(0.02)"/><use href="#reg807" transform="translate(527.9 145) scale(0.02)"/><use href="#reg899" transform="translate(540.44 145) scale(0.02)"/><use href="#reg646" transform="translate(553.9 145) scale(0.02)"/><use href="#reg2248" transform="translate(567.46 145) scale(0.02)"/></g>
<g fill="none" stroke="#7A6B5A" stroke-width="3">
<rect x="838" y="98" width="30" height="18" rx="9"/>
<rect x="860" y="98" width="30" height="18" rx="9"/>
</g>
<rect x="897" y="1" width="382" height="212" rx="16" fill="#F4EFE9" stroke="#CFBDA2" stroke-width="2"/>
<rect x="920" y="24" width="44" height="44" rx="11" fill="#1C2143"/>
<g fill="#F4EFE9"><use href="#bold2120" transform="translate(935.49 54) scale(0.022)"/></g>
<g fill="#1C2143"><use href="#semi248" transform="translate(980 40) scale(0.02)"/><use href="#semi857" transform="translate(994.52 40) scale(0.02)"/><use href="#semi661" transform="translate(1002.92 40) scale(0.02)"/><use href="#semi849" transform="translate(1015.36 40) scale(0.02)"/><use href="#semi588" transform="translate(1029.08 40) scale(0.02)"/><use href="#semi857" transform="translate(1041.22 40) scale(0.02)"/><use href="#semi588" transform="translate(1049.62 40) scale(0.02)"/><use href="#semi885" transform="translate(1061.76 40) scale(0.02)"/><use href="#semi727" transform="translate(1070.24 40) scale(0.02)"/><use href="#semi807" transform="translate(1076.02 40) scale(0.02)"/><use href="#semi792" transform="translate(1088.92 40) scale(0.02)"/><use href="#semi588" transform="translate(1108.14 40) scale(0.02)"/><use href="#semi792" transform="translate(1120.28 40) scale(0.02)"/><use href="#semi646" transform="translate(1133.98 40) scale(0.02)"/><use href="#semi588" transform="translate(1153.24 40) scale(0.02)"/><use href="#semi792" transform="translate(1165.38 40) scale(0.02)"/><use href="#semi588" transform="translate(1179.08 40) scale(0.02)"/><use href="#semi769" transform="translate(1191.22 40) scale(0.02)"/><use href="#semi949" transform="translate(1197 40) scale(0.02)"/><use href="#semi871" transform="translate(1208.56 40) scale(0.02)"/><use href="#semi727" transform="translate(1218.86 40) scale(0.02)"/><use href="#semi871" transform="translate(1224.64 40) scale(0.02)"/></g>
<g fill="#1C2143"><use href="#semi807" transform="translate(980 67) scale(0.02)"/><use href="#semi697" transform="translate(992.9 67) scale(0.02)"/><use href="#semi885" transform="translate(1005.8 67) scale(0.02)"/><use href="#semi857" transform="translate(1014.28 67) scale(0.02)"/><use href="#semi588" transform="translate(1022.68 67) scale(0.02)"/><use href="#semi792" transform="translate(1034.82 67) scale(0.02)"/><use href="#semi871" transform="translate(1048.52 67) scale(0.02)"/><use href="#semi588" transform="translate(1058.82 67) scale(0.02)"/><use href="#semi634" transform="translate(1070.96 67) scale(0.02)"/><use href="#semi885" transform="translate(1082.58 67) scale(0.02)"/><use href="#semi727" transform="translate(1091.06 67) scale(0.02)"/><use href="#semi807" transform="translate(1096.84 67) scale(0.02)"/><use href="#semi792" transform="translate(1109.74 67) scale(0.02)"/><use href="#semi646" transform="translate(1128.96 67) scale(0.02)"/><use href="#semi588" transform="translate(1142.7 67) scale(0.02)"/><use href="#semi885" transform="translate(1154.84 67) scale(0.02)"/><use href="#semi588" transform="translate(1163.32 67) scale(0.02)"/></g>
<g fill="#5E5244"><use href="#reg281" transform="translate(920 116) scale(0.02)"/><use href="#reg807" transform="translate(931.48 116) scale(0.02)"/><use href="#reg699" transform="translate(944.02 116) scale(0.02)"/><use href="#reg661" transform="translate(957.74 116) scale(0.02)"/><use href="#reg885" transform="translate(969.82 116) scale(0.02)"/><use href="#reg714" transform="translate(977.94 116) scale(0.02)"/><use href="#reg661" transform="translate(991.48 116) scale(0.02)"/><use href="#reg857" transform="translate(1003.56 116) scale(0.02)"/><use href="#reg937" transform="translate(1016.82 116) scale(0.02)"/><use href="#reg661" transform="translate(1034.4 116) scale(0.02)"/><use href="#reg857" transform="translate(1051.72 116) scale(0.02)"/><use href="#reg661" transform="translate(1059.74 116) scale(0.02)"/><use href="#reg932" transform="translate(1071.82 116) scale(0.02)"/><use href="#reg727" transform="translate(1082.66 116) scale(0.02)"/><use href="#reg661" transform="translate(1088.04 116) scale(0.02)"/><use href="#reg937" transform="translate(1100.12 116) scale(0.02)"/><use href="#reg949" transform="translate(1122.94 116) scale(0.02)"/><use href="#reg807" transform="translate(1133.78 116) scale(0.02)"/><use href="#reg899" transform="translate(1146.32 116) scale(0.02)"/><use href="#reg857" transform="translate(1159.78 116) scale(0.02)"/></g>
<g fill="#5E5244"><use href="#reg885" transform="translate(920 145) scale(0.02)"/><use href="#reg857" transform="translate(928.12 145) scale(0.02)"/><use href="#reg588" transform="translate(936.14 145) scale(0.02)"/><use href="#reg792" transform="translate(947.94 145) scale(0.02)"/><use href="#reg871" transform="translate(961.48 145) scale(0.02)"/><use href="#reg588" transform="translate(971.26 145) scale(0.02)"/><use href="#reg634" transform="translate(983.06 145) scale(0.02)"/><use href="#reg885" transform="translate(994.32 145) scale(0.02)"/><use href="#reg727" transform="translate(1002.44 145) scale(0.02)"/><use href="#reg807" transform="translate(1007.82 145) scale(0.02)"/><use href="#reg792" transform="translate(1020.36 145) scale(0.02)"/><use href="#reg646" transform="translate(1039.14 145) scale(0.02)"/><use href="#reg588" transform="translate(1052.7 145) scale(0.02)"/><use href="#reg885" transform="translate(1064.5 145) scale(0.02)"/><use href="#reg588" transform="translate(1072.62 145) scale(0.02)"/><use href="#reg588" transform="translate(1089.66 145) scale(0.02)"/><use href="#reg792" transform="translate(1101.46 145) scale(0.02)"/><use href="#reg646" transform="translate(1115 145) scale(0.02)"/><use href="#reg727" transform="translate(1133.8 145) scale(0.02)"/><use href="#reg646" transform="translate(1139.18 145) scale(0.02)"/><use href="#reg661" transform="translate(1152.74 145) scale(0.02)"/><use href="#reg792" transform="translate(1164.82 145) scale(0.02)"/><use href="#reg885" transform="translate(1178.36 145) scale(0.02)"/><use href="#reg727" transform="translate(1186.48 145) scale(0.02)"/><use href="#reg697" transform="translate(1191.86 145) scale(0.02)"/><use href="#reg949" transform="translate(1198.64 145) scale(0.02)"/></g>
<g fill="#5E5244"><use href="#reg885" transform="translate(920 174) scale(0.02)"/><use href="#reg588" transform="translate(928.12 174) scale(0.02)"/><use href="#reg946" transform="translate(939.92 174) scale(0.02)"/><use href="#reg2276" transform="translate(950.6 174) scale(0.02)"/><use href="#reg857" transform="translate(958.24 174) scale(0.02)"/><use href="#reg661" transform="translate(966.26 174) scale(0.02)"/><use href="#reg769" transform="translate(978.34 174) scale(0.02)"/><use href="#reg661" transform="translate(983.72 174) scale(0.02)"/><use href="#reg932" transform="translate(995.8 174) scale(0.02)"/><use href="#reg588" transform="translate(1006.64 174) scale(0.02)"/><use href="#reg792" transform="translate(1018.44 174) scale(0.02)"/><use href="#reg885" transform="translate(1031.98 174) scale(0.02)"/><use href="#reg697" transform="translate(1045.34 174) scale(0.02)"/><use href="#reg588" transform="translate(1052.12 174) scale(0.02)"/><use href="#reg634" transform="translate(1063.92 174) scale(0.02)"/><use href="#reg885" transform="translate(1075.18 174) scale(0.02)"/><use href="#reg871" transform="translate(1083.3 174) scale(0.02)"/><use href="#reg2248" transform="translate(1093.08 174) scale(0.02)"/></g>
<rect x="1" y="251" width="382" height="212" rx="16" fill="#F4EFE9" stroke="#CFBDA2" stroke-width="2"/>
<rect x="24" y="274" width="44" height="44" rx="11" fill="#1C2143"/>
<g fill="#F4EFE9"><use href="#bold2121" transform="translate(38.42 304) scale(0.022)"/></g>
<g fill="#1C2143"><use href="#semi248" transform="translate(84 303) scale(0.02)"/><use href="#semi857" transform="translate(98.52 303) scale(0.02)"/><use href="#semi661" transform="translate(106.92 303) scale(0.02)"/><use href="#semi849" transform="translate(119.36 303) scale(0.02)"/><use href="#semi588" transform="translate(133.08 303) scale(0.02)"/><use href="#semi857" transform="translate(145.22 303) scale(0.02)"/><use href="#semi588" transform="translate(153.62 303) scale(0.02)"/><use href="#semi885" transform="translate(165.76 303) scale(0.02)"/><use href="#semi727" transform="translate(174.24 303) scale(0.02)"/><use href="#semi807" transform="translate(180.02 303) scale(0.02)"/><use href="#semi792" transform="translate(192.92 303) scale(0.02)"/><use href="#semi807" transform="translate(212.14 303) scale(0.02)"/><use href="#semi697" transform="translate(225.04 303) scale(0.02)"/><use href="#semi885" transform="translate(237.94 303) scale(0.02)"/><use href="#semi588" transform="translate(246.42 303) scale(0.02)"/><use href="#semi946" transform="translate(258.56 303) scale(0.02)"/><use href="#semi857" transform="translate(275.54 303) scale(0.02)"/><use href="#semi661" transform="translate(283.94 303) scale(0.02)"/><use href="#semi849" transform="translate(296.38 303) scale(0.02)"/><use href="#semi807" transform="translate(310.1 303) scale(0.02)"/><use href="#semi857" transform="translate(323 303) scale(0.02)"/><use href="#semi885" transform="translate(331.4 303) scale(0.02)"/><use href="#semi871" transform="translate(339.88 303) scale(0.02)"/></g>
<g fill="#5E5244"><use href="#reg344" transform="translate(24 366) scale(0.02)"/><use href="#reg807" transform="translate(36.7 366) scale(0.02)"/><use href="#reg899" transform="translate(49.24 366) scale(0.02)"/><use href="#reg857" transform="translate(67.94 366) scale(0.02)"/><use href="#reg661" transform="translate(75.96 366) scale(0.02)"/><use href="#reg634" transform="translate(88.04 366) scale(0.02)"/><use href="#reg661" transform="translate(99.3 366) scale(0.02)"/><use href="#reg727" transform="translate(111.38 366) scale(0.02)"/><use href="#reg932" transform="translate(116.76 366) scale(0.02)"/><use href="#reg661" transform="translate(127.6 366) scale(0.02)"/><use href="#reg588" transform="translate(144.92 366) scale(0.02)"/><use href="#reg634" transform="translate(161.96 366) scale(0.02)"/><use href="#reg769" transform="translate(173.22 366) scale(0.02)"/><use href="#reg661" transform="translate(178.6 366) scale(0.02)"/><use href="#reg588" transform="translate(190.68 366) scale(0.02)"/><use href="#reg857" transform="translate(202.48 366) scale(0.02)"/><use href="#reg857" transform="translate(215.74 366) scale(0.02)"/><use href="#reg661" transform="translate(223.76 366) scale(0.02)"/><use href="#reg849" transform="translate(235.84 366) scale(0.02)"/><use href="#reg807" transform="translate(249.4 366) scale(0.02)"/><use href="#reg857" transform="translate(261.94 366) scale(0.02)"/><use href="#reg885" transform="translate(269.96 366) scale(0.02)"/><use href="#reg807" transform="translate(283.32 366) scale(0.02)"/><use href="#reg697" transform="translate(295.86 366) scale(0.02)"/><use href="#reg588" transform="translate(307.88 366) scale(0.02)"/><use href="#reg769" transform="translate(319.68 366) scale(0.02)"/><use href="#reg769" transform="translate(325.06 366) scale(0.02)"/></g>
<g fill="#5E5244"><use href="#reg885" transform="translate(24 395) scale(0.02)"/><use href="#reg588" transform="translate(32.12 395) scale(0.02)"/><use href="#reg946" transform="translate(43.92 395) scale(0.02)"/><use href="#reg588" transform="translate(54.6 395) scale(0.02)"/><use href="#reg625" transform="translate(66.4 395) scale(0.02)"/><use href="#reg769" transform="translate(79.96 395) scale(0.02)"/><use href="#reg661" transform="translate(85.34 395) scale(0.02)"/><use href="#reg661" transform="translate(102.66 395) scale(0.02)"/><use href="#reg932" transform="translate(114.74 395) scale(0.02)"/><use href="#reg661" transform="translate(125.58 395) scale(0.02)"/><use href="#reg792" transform="translate(137.66 395) scale(0.02)"/><use href="#reg885" transform="translate(151.2 395) scale(0.02)"/><use href="#reg871" transform="translate(159.32 395) scale(0.02)"/><use href="#reg2248" transform="translate(169.1 395) scale(0.02)"/></g>
<g fill="none" stroke="#7A6B5A" stroke-width="3">
<rect x="390" y="348" width="30" height="18" rx="9"/>
<rect x="412" y="348" width="30" height="18" rx="9"/>
</g>
<rect x="449" y="251" width="382" height="212" rx="16" fill="#F4EFE9" stroke="#CFBDA2" stroke-width="2"/>
<rect x="472" y="274" width="44" height="44" rx="11" fill="#1C2143"/>
<g fill="#F4EFE9"><use href="#bold2122" transform="translate(487.46 304) scale(0.022)"/></g>
<g fill="#1C2143"><use href="#semi281" transform="translate(532 303) scale(0.02)"/><use href="#semi588" transform="translate(544.04 303) scale(0.02)"/><use href="#semi946" transform="translate(556.18 303) scale(0.02)"/><use href="#semi1119" transform="translate(573.16 303) scale(0.02)"/><use href="#semi769" transform="translate(586.36 303) scale(0.02)"/><use href="#semi727" transform="translate(592.14 303) scale(0.02)"/><use href="#semi792" transform="translate(597.92 303) scale(0.02)"/><use href="#semi699" transform="translate(611.62 303) scale(0.02)"/></g>
<g fill="#5E5244"><use href="#reg333" transform="translate(472 366) scale(0.02)"/><use href="#reg661" transform="translate(494.22 366) scale(0.02)"/><use href="#reg849" transform="translate(511.54 366) scale(0.02)"/><use href="#reg857" transform="translate(525.1 366) scale(0.02)"/><use href="#reg661" transform="translate(533.12 366) scale(0.02)"/><use href="#reg849" transform="translate(545.2 366) scale(0.02)"/><use href="#reg588" transform="translate(558.76 366) scale(0.02)"/><use href="#reg857" transform="translate(570.56 366) scale(0.02)"/><use href="#reg661" transform="translate(578.58 366) scale(0.02)"/><use href="#reg885" transform="translate(595.9 366) scale(0.02)"/><use href="#reg714" transform="translate(604.02 366) scale(0.02)"/><use href="#reg661" transform="translate(617.56 366) scale(0.02)"/><use href="#reg885" transform="translate(634.88 366) scale(0.02)"/><use href="#reg588" transform="translate(643 366) scale(0.02)"/><use href="#reg946" transform="translate(654.8 366) scale(0.02)"/><use href="#reg857" transform="translate(670.72 366) scale(0.02)"/><use href="#reg661" transform="translate(678.74 366) scale(0.02)"/><use href="#reg885" transform="translate(690.82 366) scale(0.02)"/><use href="#reg899" transform="translate(698.94 366) scale(0.02)"/><use href="#reg857" transform="translate(712.4 366) scale(0.02)"/><use href="#reg792" transform="translate(720.42 366) scale(0.02)"/><use href="#reg588" transform="translate(739.2 366) scale(0.02)"/><use href="#reg792" transform="translate(751 366) scale(0.02)"/><use href="#reg646" transform="translate(764.54 366) scale(0.02)"/></g>
<g fill="#5E5244"><use href="#reg871" transform="translate(472 395) scale(0.02)"/><use href="#reg899" transform="translate(481.78 395) scale(0.02)"/><use href="#reg625" transform="translate(495.24 395) scale(0.02)"/><use href="#reg786" transform="translate(508.8 395) scale(0.02)"/><use href="#reg727" transform="translate(530.02 395) scale(0.02)"/><use href="#reg885" transform="translate(535.4 395) scale(0.02)"/><use href="#reg727" transform="translate(548.76 395) scale(0.02)"/><use href="#reg885" transform="translate(554.14 395) scale(0.02)"/><use href="#reg885" transform="translate(567.5 395) scale(0.02)"/><use href="#reg807" transform="translate(575.62 395) scale(0.02)"/><use href="#reg885" transform="translate(593.4 395) scale(0.02)"/><use href="#reg714" transform="translate(601.52 395) scale(0.02)"/><use href="#reg661" transform="translate(615.06 395) scale(0.02)"/><use href="#reg857" transform="translate(632.38 395) scale(0.02)"/><use href="#reg661" transform="translate(640.4 395) scale(0.02)"/><use href="#reg769" transform="translate(652.48 395) scale(0.02)"/><use href="#reg661" transform="translate(657.86 395) scale(0.02)"/><use href="#reg932" transform="translate(669.94 395) scale(0.02)"/><use href="#reg588" transform="translate(680.78 395) scale(0.02)"/><use href="#reg792" transform="translate(692.58 395) scale(0.02)"/><use href="#reg885" transform="translate(706.12 395) scale(0.02)"/><use href="#reg885" transform="translate(719.48 395) scale(0.02)"/><use href="#reg588" transform="translate(727.6 395) scale(0.02)"/><use href="#reg946" transform="translate(739.4 395) scale(0.02)"/></g>
<g fill="#5E5244"><use href="#reg588" transform="translate(472 424) scale(0.02)"/><use href="#reg899" transform="translate(483.8 424) scale(0.02)"/><use href="#reg885" transform="translate(497.26 424) scale(0.02)"/><use href="#reg714" transform="translate(505.38 424) scale(0.02)"/><use href="#reg807" transform="translate(518.92 424) scale(0.02)"/><use href="#reg857" transform="translate(531.46 424) scale(0.02)"/><use href="#reg727" transform="translate(539.48 424) scale(0.02)"/><use href="#reg885" transform="translate(544.86 424) scale(0.02)"/><use href="#reg949" transform="translate(552.98 424) scale(0.02)"/><use href="#reg2248" transform="translate(563.82 424) scale(0.02)"/></g>
<g fill="none" stroke="#7A6B5A" stroke-width="3">
<rect x="838" y="348" width="30" height="18" rx="9"/>
<rect x="860" y="348" width="30" height="18" rx="9"/>
</g>
<rect x="897" y="251" width="382" height="212" rx="16" fill="#F4EFE9" stroke="#CFBDA2" stroke-width="2"/>
<rect x="920" y="274" width="44" height="44" rx="11" fill="#1C2143"/>
<g fill="#F4EFE9"><use href="#bold2123" transform="translate(934.99 304) scale(0.022)"/></g>
<g fill="#1C2143"><use href="#semi45" transform="translate(980 290) scale(0.02)"/><use href="#semi807" transform="translate(994.36 290) scale(0.02)"/><use href="#semi786" transform="translate(1007.26 290) scale(0.02)"/><use href="#semi786" transform="translate(1028.32 290) scale(0.02)"/><use href="#semi899" transform="translate(1049.38 290) scale(0.02)"/><use href="#semi792" transform="translate(1063 290) scale(0.02)"/><use href="#semi727" transform="translate(1076.7 290) scale(0.02)"/><use href="#semi634" transform="translate(1082.48 290) scale(0.02)"/><use href="#semi588" transform="translate(1094.1 290) scale(0.02)"/><use href="#semi885" transform="translate(1106.24 290) scale(0.02)"/><use href="#semi727" transform="translate(1114.72 290) scale(0.02)"/><use href="#semi807" transform="translate(1120.5 290) scale(0.02)"/><use href="#semi792" transform="translate(1133.4 290) scale(0.02)"/></g>
<g fill="#1C2143"><use href="#semi937" transform="translate(980 317) scale(0.02)"/><use href="#semi727" transform="translate(998.38 317) scale(0.02)"/><use href="#semi885" transform="translate(1004.16 317) scale(0.02)"/><use href="#semi714" transform="translate(1012.64 317) scale(0.02)"/><use href="#semi885" transform="translate(1031.86 317) scale(0.02)"/><use href="#semi588" transform="translate(1040.34 317) scale(0.02)"/><use href="#semi946" transform="translate(1052.48 317) scale(0.02)"/><use href="#semi588" transform="translate(1069.46 317) scale(0.02)"/><use href="#semi899" transform="translate(1081.6 317) scale(0.02)"/><use href="#semi885" transform="translate(1095.22 317) scale(0.02)"/><use href="#semi714" transform="translate(1103.7 317) scale(0.02)"/><use href="#semi807" transform="translate(1117.4 317) scale(0.02)"/><use href="#semi857" transform="translate(1130.3 317) scale(0.02)"/><use href="#semi727" transform="translate(1138.7 317) scale(0.02)"/><use href="#semi885" transform="translate(1144.48 317) scale(0.02)"/><use href="#semi727" transform="translate(1152.96 317) scale(0.02)"/><use href="#semi661" transform="translate(1158.74 317) scale(0.02)"/><use href="#semi871" transform="translate(1171.18 317) scale(0.02)"/></g>
<g fill="#5E5244"><use href="#reg333" transform="translate(920 366) scale(0.02)"/><use href="#reg661" transform="translate(942.22 366) scale(0.02)"/><use href="#reg714" transform="translate(959.54 366) scale(0.02)"/><use href="#reg588" transform="translate(973.08 366) scale(0.02)"/><use href="#reg792" transform="translate(984.88 366) scale(0.02)"/><use href="#reg646" transform="translate(998.42 366) scale(0.02)"/><use href="#reg769" transform="translate(1011.98 366) scale(0.02)"/><use href="#reg661" transform="translate(1017.36 366) scale(0.02)"/><use href="#reg885" transform="translate(1034.68 366) scale(0.02)"/><use href="#reg714" transform="translate(1042.8 366) scale(0.02)"/><use href="#reg661" transform="translate(1056.34 366) scale(0.02)"/><use href="#reg634" transform="translate(1073.66 366) scale(0.02)"/><use href="#reg807" transform="translate(1084.92 366) scale(0.02)"/><use href="#reg786" transform="translate(1097.46 366) scale(0.02)"/><use href="#reg786" transform="translate(1118.68 366) scale(0.02)"/><use href="#reg899" transform="translate(1139.9 366) scale(0.02)"/><use href="#reg792" transform="translate(1153.36 366) scale(0.02)"/><use href="#reg727" transform="translate(1166.9 366) scale(0.02)"/><use href="#reg634" transform="translate(1172.28 366) scale(0.02)"/><use href="#reg588" transform="translate(1183.54 366) scale(0.02)"/><use href="#reg885" transform="translate(1195.34 366) scale(0.02)"/><use href="#reg727" transform="translate(1203.46 366) scale(0.02)"/><use href="#reg807" transform="translate(1208.84 366) scale(0.02)"/><use href="#reg792" transform="translate(1221.38 366) scale(0.02)"/></g>
<g fill="#5E5244"><use href="#reg937" transform="translate(920 395) scale(0.02)"/><use href="#reg727" transform="translate(937.58 395) scale(0.02)"/><use href="#reg885" transform="translate(942.96 395) scale(0.02)"/><use href="#reg714" transform="translate(951.08 395) scale(0.02)"/><use href="#reg885" transform="translate(969.86 395) scale(0.02)"/><use href="#reg714" transform="translate(977.98 395) scale(0.02)"/><use href="#reg661" transform="translate(991.52 395) scale(0.02)"/><use href="#reg885" transform="translate(1008.84 395) scale(0.02)"/><use href="#reg588" transform="translate(1016.96 395) scale(0.02)"/><use href="#reg946" transform="translate(1028.76 395) scale(0.02)"/><use href="#reg588" transform="translate(1044.68 395) scale(0.02)"/><use href="#reg899" transform="translate(1056.48 395) scale(0.02)"/><use href="#reg885" transform="translate(1069.94 395) scale(0.02)"/><use href="#reg714" transform="translate(1078.06 395) scale(0.02)"/><use href="#reg807" transform="translate(1091.6 395) scale(0.02)"/><use href="#reg857" transform="translate(1104.14 395) scale(0.02)"/><use href="#reg727" transform="translate(1112.16 395) scale(0.02)"/><use href="#reg885" transform="translate(1117.54 395) scale(0.02)"/><use href="#reg727" transform="translate(1125.66 395) scale(0.02)"/><use href="#reg661" transform="translate(1131.04 395) scale(0.02)"/><use href="#reg871" transform="translate(1143.12 395) scale(0.02)"/><use href="#reg697" transform="translate(1158.14 395) scale(0.02)"/><use href="#reg807" transform="translate(1164.92 395) scale(0.02)"/><use href="#reg857" transform="translate(1177.46 395) scale(0.02)"/><use href="#reg949" transform="translate(1190.72 395) scale(0.02)"/><use href="#reg807" transform="translate(1201.56 395) scale(0.02)"/><use href="#reg899" transform="translate(1214.1 395) scale(0.02)"/><use href="#reg2248" transform="translate(1227.56 395) scale(0.02)"/></g>
</svg>
